<?xml version="1.0" encoding="UTF-8"?><svg id="a" xmlns="http://www.w3.org/2000/svg" viewBox="0 0 800 600.7"><path d="M345.95,344.24c-3.17,12.48-6.25,23.88-8.95,35.37-6.07,25.88-10.62,52.05-13.62,78.47-3.14,27.65-4.1,55.39-2.92,83.2,.24,5.57-3.06,9.66-8.01,9.88-5.19,.23-8.58-3.23-8.95-9-1.45-22.37-.33-44.66,1.38-66.98,3.63-47.34,12.9-93.61,25.81-139.21,.03-.11-.02-.24-.03-.3-8.39-5.12-16.99-9.84-25.04-15.38-24.31-16.75-39.22-39.9-42.82-69.15-2.92-23.76-4.27-47.74-5.48-71.66-1.57-31.03-2.35-62.09-3.37-93.15-.19-5.93-.12-11.88,.24-17.8,.82-13.49,12.52-20.32,24.48-13.96,8.21,4.37,16.1,9.41,23.79,14.65,32.28,22.02,62.56,46.52,90.57,73.78,2.93,2.85,5.86,4.31,10.02,4.08,5.92-.34,11.88-.25,17.81-.09,3.28,.09,5.74-1.09,8.12-3.25,14.28-13.01,28.28-26.35,43.07-38.75,21.37-17.92,44.01-34.14,68.59-47.48,3.93-2.13,8.17-4.22,12.51-4.99,10.14-1.8,18.65,5.59,18.7,16.26,.12,24,.14,48.01-.37,72-.5,23.23-1.52,46.46-2.68,69.67-.92,18.5-1.86,37.06-7.09,55.01-8.02,27.56-25.45,47.62-49.87,62.02-4.65,2.74-9.32,5.48-14.12,7.93-2.17,1.1-2.44,2.14-1.79,4.39,5.83,20.17,11.82,40.3,17.16,60.6,7.8,29.59,14.13,59.52,17.12,90.02,1.6,16.31,2.21,32.71,3.18,49.08,.12,1.99,.06,4.11-.5,6-1.16,3.87-5.59,6.28-9.64,5.63-3.82-.62-6.51-4.06-6.68-8.39-.44-11.35-.47-22.74-1.52-34.04-1.39-14.92-3.18-29.82-5.51-44.62-6.15-38.94-16.99-76.76-28.25-114.46-.2-.68-.47-1.34-.79-2.26-6.81,6-11.46,13.26-15.33,21.08-5.12,10.35-11.89,19.3-21.54,25.85-25.3,17.15-58.04,9.78-74.94-16.98-4.9-7.76-9.19-15.9-14.16-23.61-2.08-3.22-5.19-5.78-8.59-9.45ZM271.21,69.26c-.19,1.16-.34,1.62-.34,2.09,.16,16.55,.02,33.11,.57,49.64,.85,25.5,1.9,51,3.39,76.46,1.02,17.37,2.16,34.79,4.63,51.99,3.13,21.77,13.26,40.28,31.15,53.5,9.67,7.14,20.27,13.12,30.8,19,16.23,9.06,29.08,21.12,37.02,38.14,1.59,3.41,3.45,6.75,5.58,9.86,12.08,17.66,33.68,21.9,50.62,9.95,7.31-5.16,12.04-12.42,15.98-20.28,5.37-10.73,12.01-20.62,21.91-27.59,8.52-6,17.55-11.32,26.57-16.58,12.65-7.38,24.19-15.95,33.08-27.79,12.45-16.56,16.64-35.89,18.41-55.87,1.42-15.96,2.52-31.99,2.91-48,.91-36.62,1.31-73.26,1.9-109.89,.02-1.55-.13-3.11-.22-5.02-1.3,.66-2.11,.98-2.83,1.45-15.97,10.27-32.27,20.06-47.8,30.96-23.9,16.79-45.34,36.56-66.19,56.97-3.79,3.71-8.38,5.46-13.64,5.49-7.45,.04-14.93-.28-22.36,.12-8.43,.46-15.03-2.57-20.97-8.4-27.8-27.29-58.08-51.58-90.29-73.46-6.39-4.34-13.02-8.34-19.89-12.72Z"/><path d="M528.63,135.23c-1.4,7.49-3,16.53-4.78,25.53-1.84,9.37-3.87,18.7-5.77,28.06-1.3,6.41-4.98,7.99-10.11,3.94-8.45-6.66-17.54-12.06-27.68-15.76-5.02-1.83-6.04-5.3-2.71-9.4,10.92-13.41,22.3-26.4,36.49-36.55,1.92-1.38,4.02-2.68,6.23-3.46,4.74-1.68,8.33,1.07,8.33,7.65Z"/><path d="M297.52,133.93c-.03-5.85,3.62-8.55,8.44-5.86,5.33,2.97,10.67,6.36,15.02,10.59,8.85,8.59,17.05,17.85,25.48,26.86,.85,.91,1.57,1.98,2.21,3.05,2.18,3.65,1.25,6.19-2.7,8.19-6.8,3.44-13.63,6.84-20.29,10.54-2.94,1.64-5.46,4.01-8.23,5.98-4.6,3.27-8.3,1.97-9.39-3.51-3.55-17.97-6.97-35.97-10.42-53.97-.14-.74-.11-1.51-.13-1.87Z"/><path d="M457.48,285.88c-3.64,.04-5.37-1.96-4.38-4.95,1.52-4.6,3.1-9.38,5.73-13.38,9.45-14.36,22.99-22.22,40.22-23.14,3.94-.21,8.03,.59,11.88,1.59,1.51,.39,2.55,2.62,3.8,4.01-1.37,1.08-2.61,2.84-4.14,3.14-20.35,3.9-36.93,13.84-49.71,30.18-1,1.28-2.68,2.03-3.39,2.55Z"/><path d="M328.15,243.77c19.78,.82,40.63,15.89,45.92,33.57,.25,.84,.61,1.69,.66,2.54,.13,2.23,.7,4.81-2.09,5.84-2.55,.95-4.2-.6-5.7-2.55-10-13.03-22.67-22.37-38.44-27.22-3.81-1.17-7.85-1.63-11.65-2.82-1.37-.43-3.26-2.06-3.27-3.17-.02-1.25,1.58-3.24,2.87-3.64,3.79-1.19,7.78-1.75,11.7-2.55Z"/><path d="M415.32,374.5c-4.28-.58-7.35-2.5-9.47-5.35-3.06-4.12-5.89-8.48-8.23-13.04-2.71-5.27-.25-10.43,5.54-10.92,7.47-.63,15.07-.68,22.54-.06,6.14,.51,8.73,5.52,5.92,11-2.61,5.09-5.85,9.94-9.41,14.42-1.53,1.93-4.56,2.67-6.9,3.95Z"/></svg>